<?xml version="1.0" encoding="UTF-8" standalone="no"?>
<!DOCTYPE svg PUBLIC "-//W3C//DTD SVG 1.1//EN"
 "http://www.w3.org/Graphics/SVG/1.1/DTD/svg11.dtd">
<!-- Generated by graphviz version 2.43.0 (0)
 -->
<!-- Title: %3 Pages: 1 -->
<svg width="3421pt" height="320pt"
 viewBox="0.00 0.00 3421.00 320.00" xmlns="http://www.w3.org/2000/svg" xmlns:xlink="http://www.w3.org/1999/xlink">
<g id="graph0" class="graph" transform="scale(1 1) rotate(0) translate(4 316)">
<title>%3</title>
<polygon fill="white" stroke="transparent" points="-4,4 -4,-316 3417,-316 3417,4 -4,4"/>
<!-- 139850771736656 -->
<g id="node1" class="node">
<title>139850771736656</title>
<polygon fill="none" stroke="black" points="3146,-84.5 3146,-120.5 3413,-120.5 3413,-84.5 3146,-84.5"/>
<text text-anchor="middle" x="3163" y="-98.8" font-family="Times,serif" font-size="14.00">y1</text>
<polyline fill="none" stroke="black" points="3180,-84.5 3180,-120.5 "/>
<text text-anchor="middle" x="3244.5" y="-98.8" font-family="Times,serif" font-size="14.00">data 1488.0000</text>
<polyline fill="none" stroke="black" points="3309,-84.5 3309,-120.5 "/>
<text text-anchor="middle" x="3361" y="-98.8" font-family="Times,serif" font-size="14.00">grad 0.0000</text>
</g>
<!-- 139850775324880 -->
<g id="node2" class="node">
<title>139850775324880</title>
<polygon fill="none" stroke="black" points="660,-275.5 660,-311.5 922,-311.5 922,-275.5 660,-275.5"/>
<text text-anchor="middle" x="683.5" y="-289.8" font-family="Times,serif" font-size="14.00">o2_r</text>
<polyline fill="none" stroke="black" points="707,-275.5 707,-311.5 "/>
<text text-anchor="middle" x="762.5" y="-289.8" font-family="Times,serif" font-size="14.00">data 10.0000</text>
<polyline fill="none" stroke="black" points="818,-275.5 818,-311.5 "/>
<text text-anchor="middle" x="870" y="-289.8" font-family="Times,serif" font-size="14.00">grad 0.0000</text>
</g>
<!-- 139850771735376* -->
<g id="node13" class="node">
<title>139850771735376*</title>
<ellipse fill="none" stroke="black" cx="985" cy="-238.5" rx="27" ry="18"/>
<text text-anchor="middle" x="985" y="-234.8" font-family="Times,serif" font-size="14.00">*</text>
</g>
<!-- 139850775324880&#45;&gt;139850771735376* -->
<g id="edge25" class="edge">
<title>139850775324880&#45;&gt;139850771735376*</title>
<path fill="none" stroke="black" d="M890.56,-275.42C901.26,-272.75 911.92,-269.78 922,-266.5 932.72,-263.01 944.07,-258.23 954.09,-253.61"/>
<polygon fill="black" stroke="black" points="955.69,-256.72 963.22,-249.27 952.69,-250.4 955.69,-256.72"/>
</g>
<!-- 139850775325008 -->
<g id="node3" class="node">
<title>139850775325008</title>
<polygon fill="none" stroke="black" points="1048,-2.5 1048,-38.5 1284,-38.5 1284,-2.5 1048,-2.5"/>
<text text-anchor="middle" x="1058.5" y="-16.8" font-family="Times,serif" font-size="14.00"> </text>
<polyline fill="none" stroke="black" points="1069,-2.5 1069,-38.5 "/>
<text text-anchor="middle" x="1124.5" y="-16.8" font-family="Times,serif" font-size="14.00">data 41.0000</text>
<polyline fill="none" stroke="black" points="1180,-2.5 1180,-38.5 "/>
<text text-anchor="middle" x="1232" y="-16.8" font-family="Times,serif" font-size="14.00">grad 0.0000</text>
</g>
<!-- 139850775321744+ -->
<g id="node25" class="node">
<title>139850775321744+</title>
<ellipse fill="none" stroke="black" cx="1347" cy="-75.5" rx="27" ry="18"/>
<text text-anchor="middle" x="1347" y="-71.8" font-family="Times,serif" font-size="14.00">+</text>
</g>
<!-- 139850775325008&#45;&gt;139850775321744+ -->
<g id="edge17" class="edge">
<title>139850775325008&#45;&gt;139850775321744+</title>
<path fill="none" stroke="black" d="M1253.8,-38.5C1264.06,-41.23 1274.32,-44.23 1284,-47.5 1294.69,-51.11 1306.02,-55.92 1316.04,-60.53"/>
<polygon fill="black" stroke="black" points="1314.65,-63.74 1325.18,-64.85 1317.64,-57.41 1314.65,-63.74"/>
</g>
<!-- 139850775325008* -->
<g id="node4" class="node">
<title>139850775325008*</title>
<ellipse fill="none" stroke="black" cx="791" cy="-18.5" rx="27" ry="18"/>
<text text-anchor="middle" x="791" y="-14.8" font-family="Times,serif" font-size="14.00">*</text>
</g>
<!-- 139850775325008*&#45;&gt;139850775325008 -->
<g id="edge1" class="edge">
<title>139850775325008*&#45;&gt;139850775325008</title>
<path fill="none" stroke="black" d="M818.23,-18.64C863.39,-18.88 958.63,-19.39 1037.89,-19.82"/>
<polygon fill="black" stroke="black" points="1037.95,-23.32 1047.96,-19.87 1037.98,-16.32 1037.95,-23.32"/>
</g>
<!-- 139850775229008 -->
<g id="node5" class="node">
<title>139850775229008</title>
<polygon fill="none" stroke="black" points="4.5,-234.5 4.5,-270.5 244.5,-270.5 244.5,-234.5 4.5,-234.5"/>
<text text-anchor="middle" x="21.5" y="-248.8" font-family="Times,serif" font-size="14.00">x2</text>
<polyline fill="none" stroke="black" points="38.5,-234.5 38.5,-270.5 "/>
<text text-anchor="middle" x="89.5" y="-248.8" font-family="Times,serif" font-size="14.00">data 2.0000</text>
<polyline fill="none" stroke="black" points="140.5,-234.5 140.5,-270.5 "/>
<text text-anchor="middle" x="192.5" y="-248.8" font-family="Times,serif" font-size="14.00">grad 0.0000</text>
</g>
<!-- 139850775321872* -->
<g id="node27" class="node">
<title>139850775321872*</title>
<ellipse fill="none" stroke="black" cx="312" cy="-210.5" rx="27" ry="18"/>
<text text-anchor="middle" x="312" y="-206.8" font-family="Times,serif" font-size="14.00">*</text>
</g>
<!-- 139850775229008&#45;&gt;139850775321872* -->
<g id="edge33" class="edge">
<title>139850775229008&#45;&gt;139850775321872*</title>
<path fill="none" stroke="black" d="M209.26,-234.45C222.57,-231.51 236.17,-228.45 249,-225.5 257.94,-223.44 267.58,-221.15 276.54,-218.98"/>
<polygon fill="black" stroke="black" points="277.4,-222.37 286.29,-216.61 275.75,-215.57 277.4,-222.37"/>
</g>
<!-- 139850775229072 -->
<g id="node6" class="node">
<title>139850775229072</title>
<polygon fill="none" stroke="black" points="4.5,-124.5 4.5,-160.5 244.5,-160.5 244.5,-124.5 4.5,-124.5"/>
<text text-anchor="middle" x="21.5" y="-138.8" font-family="Times,serif" font-size="14.00">x1</text>
<polyline fill="none" stroke="black" points="38.5,-124.5 38.5,-160.5 "/>
<text text-anchor="middle" x="89.5" y="-138.8" font-family="Times,serif" font-size="14.00">data 1.0000</text>
<polyline fill="none" stroke="black" points="140.5,-124.5 140.5,-160.5 "/>
<text text-anchor="middle" x="192.5" y="-138.8" font-family="Times,serif" font-size="14.00">grad 0.0000</text>
</g>
<!-- 139850775321552* -->
<g id="node16" class="node">
<title>139850775321552*</title>
<ellipse fill="none" stroke="black" cx="312" cy="-128.5" rx="27" ry="18"/>
<text text-anchor="middle" x="312" y="-124.8" font-family="Times,serif" font-size="14.00">*</text>
</g>
<!-- 139850775229072&#45;&gt;139850775321552* -->
<g id="edge29" class="edge">
<title>139850775229072&#45;&gt;139850775321552*</title>
<path fill="none" stroke="black" d="M244.55,-133.51C255.41,-132.7 265.74,-131.92 274.88,-131.23"/>
<polygon fill="black" stroke="black" points="275.31,-134.7 285.02,-130.46 274.78,-127.72 275.31,-134.7"/>
</g>
<!-- 139850771733136 -->
<g id="node7" class="node">
<title>139850771733136</title>
<polygon fill="none" stroke="black" points="1695,-61.5 1695,-97.5 1957,-97.5 1957,-61.5 1695,-61.5"/>
<text text-anchor="middle" x="1718.5" y="-75.8" font-family="Times,serif" font-size="14.00">o3_r</text>
<polyline fill="none" stroke="black" points="1742,-61.5 1742,-97.5 "/>
<text text-anchor="middle" x="1797.5" y="-75.8" font-family="Times,serif" font-size="14.00">data 41.0000</text>
<polyline fill="none" stroke="black" points="1853,-61.5 1853,-97.5 "/>
<text text-anchor="middle" x="1905" y="-75.8" font-family="Times,serif" font-size="14.00">grad 0.0000</text>
</g>
<!-- 139850771735824* -->
<g id="node29" class="node">
<title>139850771735824*</title>
<ellipse fill="none" stroke="black" cx="2020" cy="-79.5" rx="27" ry="18"/>
<text text-anchor="middle" x="2020" y="-75.8" font-family="Times,serif" font-size="14.00">*</text>
</g>
<!-- 139850771733136&#45;&gt;139850771735824* -->
<g id="edge27" class="edge">
<title>139850771733136&#45;&gt;139850771735824*</title>
<path fill="none" stroke="black" d="M1957.19,-79.5C1966.3,-79.5 1974.93,-79.5 1982.7,-79.5"/>
<polygon fill="black" stroke="black" points="1982.72,-83 1992.72,-79.5 1982.72,-76 1982.72,-83"/>
</g>
<!-- 139850771735248 -->
<g id="node8" class="node">
<title>139850771735248</title>
<polygon fill="none" stroke="black" points="1052.5,-165.5 1052.5,-201.5 1279.5,-201.5 1279.5,-165.5 1052.5,-165.5"/>
<text text-anchor="middle" x="1063" y="-179.8" font-family="Times,serif" font-size="14.00"> </text>
<polyline fill="none" stroke="black" points="1073.5,-165.5 1073.5,-201.5 "/>
<text text-anchor="middle" x="1124.5" y="-179.8" font-family="Times,serif" font-size="14.00">data 0.0000</text>
<polyline fill="none" stroke="black" points="1175.5,-165.5 1175.5,-201.5 "/>
<text text-anchor="middle" x="1227.5" y="-179.8" font-family="Times,serif" font-size="14.00">grad 0.0000</text>
</g>
<!-- 139850771735632+ -->
<g id="node20" class="node">
<title>139850771735632+</title>
<ellipse fill="none" stroke="black" cx="1347" cy="-228.5" rx="27" ry="18"/>
<text text-anchor="middle" x="1347" y="-224.8" font-family="Times,serif" font-size="14.00">+</text>
</g>
<!-- 139850771735248&#45;&gt;139850771735632+ -->
<g id="edge30" class="edge">
<title>139850771735248&#45;&gt;139850771735632+</title>
<path fill="none" stroke="black" d="M1243.87,-201.52C1257.27,-204.76 1271.05,-208.18 1284,-211.5 1293.11,-213.84 1302.94,-216.48 1312.03,-218.97"/>
<polygon fill="black" stroke="black" points="1311.33,-222.41 1321.9,-221.7 1313.2,-215.66 1311.33,-222.41"/>
</g>
<!-- 139850771735248* -->
<g id="node9" class="node">
<title>139850771735248*</title>
<ellipse fill="none" stroke="black" cx="985" cy="-183.5" rx="27" ry="18"/>
<text text-anchor="middle" x="985" y="-179.8" font-family="Times,serif" font-size="14.00">*</text>
</g>
<!-- 139850771735248*&#45;&gt;139850771735248 -->
<g id="edge2" class="edge">
<title>139850771735248*&#45;&gt;139850771735248</title>
<path fill="none" stroke="black" d="M1012.03,-183.5C1020.64,-183.5 1030.87,-183.5 1041.89,-183.5"/>
<polygon fill="black" stroke="black" points="1042.21,-187 1052.21,-183.5 1042.21,-180 1042.21,-187"/>
</g>
<!-- 139850775229136 -->
<g id="node10" class="node">
<title>139850775229136</title>
<polygon fill="none" stroke="black" points="669,-55.5 669,-91.5 913,-91.5 913,-55.5 669,-55.5"/>
<text text-anchor="middle" x="688" y="-69.8" font-family="Times,serif" font-size="14.00">w3</text>
<polyline fill="none" stroke="black" points="707,-55.5 707,-91.5 "/>
<text text-anchor="middle" x="758" y="-69.8" font-family="Times,serif" font-size="14.00">data 3.0000</text>
<polyline fill="none" stroke="black" points="809,-55.5 809,-91.5 "/>
<text text-anchor="middle" x="861" y="-69.8" font-family="Times,serif" font-size="14.00">grad 0.0000</text>
</g>
<!-- 139850775326480* -->
<g id="node38" class="node">
<title>139850775326480*</title>
<ellipse fill="none" stroke="black" cx="985" cy="-75.5" rx="27" ry="18"/>
<text text-anchor="middle" x="985" y="-71.8" font-family="Times,serif" font-size="14.00">*</text>
</g>
<!-- 139850775229136&#45;&gt;139850775326480* -->
<g id="edge32" class="edge">
<title>139850775229136&#45;&gt;139850775326480*</title>
<path fill="none" stroke="black" d="M913.05,-74.76C925.5,-74.89 937.35,-75.01 947.67,-75.12"/>
<polygon fill="black" stroke="black" points="947.8,-78.62 957.83,-75.23 947.87,-71.62 947.8,-78.62"/>
</g>
<!-- 139850775229200 -->
<g id="node11" class="node">
<title>139850775229200</title>
<polygon fill="none" stroke="black" points="0,-69.5 0,-105.5 249,-105.5 249,-69.5 0,-69.5"/>
<text text-anchor="middle" x="19" y="-83.8" font-family="Times,serif" font-size="14.00">w1</text>
<polyline fill="none" stroke="black" points="38,-69.5 38,-105.5 "/>
<text text-anchor="middle" x="91.5" y="-83.8" font-family="Times,serif" font-size="14.00">data &#45;4.0000</text>
<polyline fill="none" stroke="black" points="145,-69.5 145,-105.5 "/>
<text text-anchor="middle" x="197" y="-83.8" font-family="Times,serif" font-size="14.00">grad 0.0000</text>
</g>
<!-- 139850775229200&#45;&gt;139850775321552* -->
<g id="edge37" class="edge">
<title>139850775229200&#45;&gt;139850775321552*</title>
<path fill="none" stroke="black" d="M207.13,-105.54C231.36,-110.9 256.61,-116.48 276.15,-120.8"/>
<polygon fill="black" stroke="black" points="275.57,-124.25 286.09,-122.99 277.08,-117.42 275.57,-124.25"/>
</g>
<!-- 139850771735376 -->
<g id="node12" class="node">
<title>139850771735376</title>
<polygon fill="none" stroke="black" points="1048,-220.5 1048,-256.5 1284,-256.5 1284,-220.5 1048,-220.5"/>
<text text-anchor="middle" x="1058.5" y="-234.8" font-family="Times,serif" font-size="14.00"> </text>
<polyline fill="none" stroke="black" points="1069,-220.5 1069,-256.5 "/>
<text text-anchor="middle" x="1124.5" y="-234.8" font-family="Times,serif" font-size="14.00">data 58.0000</text>
<polyline fill="none" stroke="black" points="1180,-220.5 1180,-256.5 "/>
<text text-anchor="middle" x="1232" y="-234.8" font-family="Times,serif" font-size="14.00">grad 0.0000</text>
</g>
<!-- 139850771735376&#45;&gt;139850771735632+ -->
<g id="edge38" class="edge">
<title>139850771735376&#45;&gt;139850771735632+</title>
<path fill="none" stroke="black" d="M1284.15,-231.96C1293.24,-231.45 1301.91,-230.96 1309.73,-230.53"/>
<polygon fill="black" stroke="black" points="1310.03,-234.02 1319.82,-229.96 1309.64,-227.03 1310.03,-234.02"/>
</g>
<!-- 139850771735376*&#45;&gt;139850771735376 -->
<g id="edge3" class="edge">
<title>139850771735376*&#45;&gt;139850771735376</title>
<path fill="none" stroke="black" d="M1012.03,-238.5C1019.58,-238.5 1028.38,-238.5 1037.87,-238.5"/>
<polygon fill="black" stroke="black" points="1037.99,-242 1047.99,-238.5 1037.99,-235 1037.99,-242"/>
</g>
<!-- 139850775319440 -->
<g id="node14" class="node">
<title>139850775319440</title>
<polygon fill="none" stroke="black" points="377.5,-0.5 377.5,-36.5 621.5,-36.5 621.5,-0.5 377.5,-0.5"/>
<text text-anchor="middle" x="396.5" y="-14.8" font-family="Times,serif" font-size="14.00">w5</text>
<polyline fill="none" stroke="black" points="415.5,-0.5 415.5,-36.5 "/>
<text text-anchor="middle" x="466.5" y="-14.8" font-family="Times,serif" font-size="14.00">data 4.1000</text>
<polyline fill="none" stroke="black" points="517.5,-0.5 517.5,-36.5 "/>
<text text-anchor="middle" x="569.5" y="-14.8" font-family="Times,serif" font-size="14.00">grad 0.0000</text>
</g>
<!-- 139850775319440&#45;&gt;139850775325008* -->
<g id="edge28" class="edge">
<title>139850775319440&#45;&gt;139850775325008*</title>
<path fill="none" stroke="black" d="M621.6,-18.5C669.27,-18.5 720.47,-18.5 753.73,-18.5"/>
<polygon fill="black" stroke="black" points="753.87,-22 763.87,-18.5 753.87,-15 753.87,-22"/>
</g>
<!-- 139850775321552 -->
<g id="node15" class="node">
<title>139850775321552</title>
<polygon fill="none" stroke="black" points="377,-110.5 377,-146.5 622,-146.5 622,-110.5 377,-110.5"/>
<text text-anchor="middle" x="394" y="-124.8" font-family="Times,serif" font-size="14.00">o1</text>
<polyline fill="none" stroke="black" points="411,-110.5 411,-146.5 "/>
<text text-anchor="middle" x="464.5" y="-124.8" font-family="Times,serif" font-size="14.00">data &#45;4.0000</text>
<polyline fill="none" stroke="black" points="518,-110.5 518,-146.5 "/>
<text text-anchor="middle" x="570" y="-124.8" font-family="Times,serif" font-size="14.00">grad 0.0000</text>
</g>
<!-- 139850775321616 -->
<g id="node18" class="node">
<title>139850775321616</title>
<polygon fill="none" stroke="black" points="664.5,-110.5 664.5,-146.5 917.5,-146.5 917.5,-110.5 664.5,-110.5"/>
<text text-anchor="middle" x="688" y="-124.8" font-family="Times,serif" font-size="14.00">o1_r</text>
<polyline fill="none" stroke="black" points="711.5,-110.5 711.5,-146.5 "/>
<text text-anchor="middle" x="762.5" y="-124.8" font-family="Times,serif" font-size="14.00">data 0.0000</text>
<polyline fill="none" stroke="black" points="813.5,-110.5 813.5,-146.5 "/>
<text text-anchor="middle" x="865.5" y="-124.8" font-family="Times,serif" font-size="14.00">grad 0.0000</text>
</g>
<!-- 139850775321552&#45;&gt;139850775321616 -->
<g id="edge13" class="edge">
<title>139850775321552&#45;&gt;139850775321616</title>
<path fill="none" stroke="black" d="M622.02,-128.5C632.57,-128.5 643.29,-128.5 653.95,-128.5"/>
<polygon fill="black" stroke="black" points="654.14,-132 664.14,-128.5 654.14,-125 654.14,-132"/>
</g>
<!-- 139850775321552*&#45;&gt;139850775321552 -->
<g id="edge4" class="edge">
<title>139850775321552*&#45;&gt;139850775321552</title>
<path fill="none" stroke="black" d="M339.18,-128.5C347.12,-128.5 356.44,-128.5 366.51,-128.5"/>
<polygon fill="black" stroke="black" points="366.81,-132 376.81,-128.5 366.81,-125 366.81,-132"/>
</g>
<!-- 139850775319504 -->
<g id="node17" class="node">
<title>139850775319504</title>
<polygon fill="none" stroke="black" points="1704,-6.5 1704,-42.5 1948,-42.5 1948,-6.5 1704,-6.5"/>
<text text-anchor="middle" x="1723" y="-20.8" font-family="Times,serif" font-size="14.00">w7</text>
<polyline fill="none" stroke="black" points="1742,-6.5 1742,-42.5 "/>
<text text-anchor="middle" x="1793" y="-20.8" font-family="Times,serif" font-size="14.00">data 8.0000</text>
<polyline fill="none" stroke="black" points="1844,-6.5 1844,-42.5 "/>
<text text-anchor="middle" x="1896" y="-20.8" font-family="Times,serif" font-size="14.00">grad 0.0000</text>
</g>
<!-- 139850775319504&#45;&gt;139850771735824* -->
<g id="edge39" class="edge">
<title>139850775319504&#45;&gt;139850771735824*</title>
<path fill="none" stroke="black" d="M1925.56,-42.58C1936.26,-45.25 1946.92,-48.22 1957,-51.5 1967.72,-54.99 1979.07,-59.77 1989.09,-64.39"/>
<polygon fill="black" stroke="black" points="1987.69,-67.6 1998.22,-68.73 1990.69,-61.28 1987.69,-67.6"/>
</g>
<!-- 139850775321616&#45;&gt;139850771735248* -->
<g id="edge34" class="edge">
<title>139850775321616&#45;&gt;139850771735248*</title>
<path fill="none" stroke="black" d="M886.67,-146.58C898.66,-149.55 910.68,-152.86 922,-156.5 932.48,-159.87 943.6,-164.4 953.48,-168.78"/>
<polygon fill="black" stroke="black" points="952.33,-172.1 962.88,-173.06 955.23,-165.73 952.33,-172.1"/>
</g>
<!-- 139850771736208+ -->
<g id="node36" class="node">
<title>139850771736208+</title>
<ellipse fill="none" stroke="black" cx="2793" cy="-102.5" rx="27" ry="18"/>
<text text-anchor="middle" x="2793" y="-98.8" font-family="Times,serif" font-size="14.00">+</text>
</g>
<!-- 139850775321616&#45;&gt;139850771736208+ -->
<g id="edge15" class="edge">
<title>139850775321616&#45;&gt;139850771736208+</title>
<path fill="none" stroke="black" d="M917.61,-127.49C989.95,-126.99 1082.6,-126.5 1165,-126.5 1165,-126.5 1165,-126.5 2401,-126.5 2531.73,-126.5 2686.58,-112.97 2755.62,-106.23"/>
<polygon fill="black" stroke="black" points="2756.34,-109.67 2765.95,-105.21 2755.66,-102.71 2756.34,-109.67"/>
</g>
<!-- 139850775321616&#45;&gt;139850775326480* -->
<g id="edge31" class="edge">
<title>139850775321616&#45;&gt;139850775326480*</title>
<path fill="none" stroke="black" d="M889.07,-110.49C900.26,-107.78 911.43,-104.78 922,-101.5 932.37,-98.28 943.38,-93.97 953.21,-89.79"/>
<polygon fill="black" stroke="black" points="954.82,-92.9 962.57,-85.69 952.01,-86.49 954.82,-92.9"/>
</g>
<!-- 139850771735632 -->
<g id="node19" class="node">
<title>139850771735632</title>
<polygon fill="none" stroke="black" points="1410,-210.5 1410,-246.5 1659,-246.5 1659,-210.5 1410,-210.5"/>
<text text-anchor="middle" x="1427" y="-224.8" font-family="Times,serif" font-size="14.00">o4</text>
<polyline fill="none" stroke="black" points="1444,-210.5 1444,-246.5 "/>
<text text-anchor="middle" x="1499.5" y="-224.8" font-family="Times,serif" font-size="14.00">data 58.0000</text>
<polyline fill="none" stroke="black" points="1555,-210.5 1555,-246.5 "/>
<text text-anchor="middle" x="1607" y="-224.8" font-family="Times,serif" font-size="14.00">grad 0.0000</text>
</g>
<!-- 139850771735696 -->
<g id="node23" class="node">
<title>139850771735696</title>
<polygon fill="none" stroke="black" points="1695,-210.5 1695,-246.5 1957,-246.5 1957,-210.5 1695,-210.5"/>
<text text-anchor="middle" x="1718.5" y="-224.8" font-family="Times,serif" font-size="14.00">o4_r</text>
<polyline fill="none" stroke="black" points="1742,-210.5 1742,-246.5 "/>
<text text-anchor="middle" x="1797.5" y="-224.8" font-family="Times,serif" font-size="14.00">data 58.0000</text>
<polyline fill="none" stroke="black" points="1853,-210.5 1853,-246.5 "/>
<text text-anchor="middle" x="1905" y="-224.8" font-family="Times,serif" font-size="14.00">grad 0.0000</text>
</g>
<!-- 139850771735632&#45;&gt;139850771735696 -->
<g id="edge20" class="edge">
<title>139850771735632&#45;&gt;139850771735696</title>
<path fill="none" stroke="black" d="M1659.11,-228.5C1667.62,-228.5 1676.22,-228.5 1684.81,-228.5"/>
<polygon fill="black" stroke="black" points="1684.87,-232 1694.87,-228.5 1684.87,-225 1684.87,-232"/>
</g>
<!-- 139850771735632+&#45;&gt;139850771735632 -->
<g id="edge5" class="edge">
<title>139850771735632+&#45;&gt;139850771735632</title>
<path fill="none" stroke="black" d="M1374.18,-228.5C1381.67,-228.5 1390.38,-228.5 1399.79,-228.5"/>
<polygon fill="black" stroke="black" points="1399.84,-232 1409.84,-228.5 1399.84,-225 1399.84,-232"/>
</g>
<!-- 139850775319632 -->
<g id="node21" class="node">
<title>139850775319632</title>
<polygon fill="none" stroke="black" points="669,-220.5 669,-256.5 913,-256.5 913,-220.5 669,-220.5"/>
<text text-anchor="middle" x="688" y="-234.8" font-family="Times,serif" font-size="14.00">w6</text>
<polyline fill="none" stroke="black" points="707,-220.5 707,-256.5 "/>
<text text-anchor="middle" x="758" y="-234.8" font-family="Times,serif" font-size="14.00">data 5.8000</text>
<polyline fill="none" stroke="black" points="809,-220.5 809,-256.5 "/>
<text text-anchor="middle" x="861" y="-234.8" font-family="Times,serif" font-size="14.00">grad 0.0000</text>
</g>
<!-- 139850775319632&#45;&gt;139850771735376* -->
<g id="edge26" class="edge">
<title>139850775319632&#45;&gt;139850771735376*</title>
<path fill="none" stroke="black" d="M913.05,-238.5C925.5,-238.5 937.35,-238.5 947.67,-238.5"/>
<polygon fill="black" stroke="black" points="947.83,-242 957.83,-238.5 947.83,-235 947.83,-242"/>
</g>
<!-- 139850775319696 -->
<g id="node22" class="node">
<title>139850775319696</title>
<polygon fill="none" stroke="black" points="1699.5,-155.5 1699.5,-191.5 1952.5,-191.5 1952.5,-155.5 1699.5,-155.5"/>
<text text-anchor="middle" x="1718.5" y="-169.8" font-family="Times,serif" font-size="14.00">w8</text>
<polyline fill="none" stroke="black" points="1737.5,-155.5 1737.5,-191.5 "/>
<text text-anchor="middle" x="1793" y="-169.8" font-family="Times,serif" font-size="14.00">data 20.0000</text>
<polyline fill="none" stroke="black" points="1848.5,-155.5 1848.5,-191.5 "/>
<text text-anchor="middle" x="1900.5" y="-169.8" font-family="Times,serif" font-size="14.00">grad 0.0000</text>
</g>
<!-- 139850771735952* -->
<g id="node31" class="node">
<title>139850771735952*</title>
<ellipse fill="none" stroke="black" cx="2020" cy="-173.5" rx="27" ry="18"/>
<text text-anchor="middle" x="2020" y="-169.8" font-family="Times,serif" font-size="14.00">*</text>
</g>
<!-- 139850775319696&#45;&gt;139850771735952* -->
<g id="edge36" class="edge">
<title>139850775319696&#45;&gt;139850771735952*</title>
<path fill="none" stroke="black" d="M1952.66,-173.5C1963.46,-173.5 1973.71,-173.5 1982.78,-173.5"/>
<polygon fill="black" stroke="black" points="1982.85,-177 1992.85,-173.5 1982.85,-170 1982.85,-177"/>
</g>
<!-- 139850771735696&#45;&gt;139850771735952* -->
<g id="edge16" class="edge">
<title>139850771735696&#45;&gt;139850771735952*</title>
<path fill="none" stroke="black" d="M1925.56,-210.42C1936.26,-207.75 1946.92,-204.78 1957,-201.5 1967.72,-198.01 1979.07,-193.23 1989.09,-188.61"/>
<polygon fill="black" stroke="black" points="1990.69,-191.72 1998.22,-184.27 1987.69,-185.4 1990.69,-191.72"/>
</g>
<!-- 139850775321744 -->
<g id="node24" class="node">
<title>139850775321744</title>
<polygon fill="none" stroke="black" points="1410,-61.5 1410,-97.5 1659,-97.5 1659,-61.5 1410,-61.5"/>
<text text-anchor="middle" x="1427" y="-75.8" font-family="Times,serif" font-size="14.00">o3</text>
<polyline fill="none" stroke="black" points="1444,-61.5 1444,-97.5 "/>
<text text-anchor="middle" x="1499.5" y="-75.8" font-family="Times,serif" font-size="14.00">data 41.0000</text>
<polyline fill="none" stroke="black" points="1555,-61.5 1555,-97.5 "/>
<text text-anchor="middle" x="1607" y="-75.8" font-family="Times,serif" font-size="14.00">grad 0.0000</text>
</g>
<!-- 139850775321744&#45;&gt;139850771733136 -->
<g id="edge22" class="edge">
<title>139850775321744&#45;&gt;139850771733136</title>
<path fill="none" stroke="black" d="M1659.11,-79.5C1667.62,-79.5 1676.22,-79.5 1684.81,-79.5"/>
<polygon fill="black" stroke="black" points="1684.87,-83 1694.87,-79.5 1684.87,-76 1684.87,-83"/>
</g>
<!-- 139850775321744+&#45;&gt;139850775321744 -->
<g id="edge6" class="edge">
<title>139850775321744+&#45;&gt;139850775321744</title>
<path fill="none" stroke="black" d="M1374.18,-76.06C1381.67,-76.23 1390.38,-76.41 1399.79,-76.62"/>
<polygon fill="black" stroke="black" points="1399.76,-80.12 1409.84,-76.83 1399.91,-73.12 1399.76,-80.12"/>
</g>
<!-- 139850775321872 -->
<g id="node26" class="node">
<title>139850775321872</title>
<polygon fill="none" stroke="black" points="375,-192.5 375,-228.5 624,-228.5 624,-192.5 375,-192.5"/>
<text text-anchor="middle" x="392" y="-206.8" font-family="Times,serif" font-size="14.00">o2</text>
<polyline fill="none" stroke="black" points="409,-192.5 409,-228.5 "/>
<text text-anchor="middle" x="464.5" y="-206.8" font-family="Times,serif" font-size="14.00">data 10.0000</text>
<polyline fill="none" stroke="black" points="520,-192.5 520,-228.5 "/>
<text text-anchor="middle" x="572" y="-206.8" font-family="Times,serif" font-size="14.00">grad 0.0000</text>
</g>
<!-- 139850775321872&#45;&gt;139850775324880 -->
<g id="edge40" class="edge">
<title>139850775321872&#45;&gt;139850775324880</title>
<path fill="none" stroke="black" d="M546.74,-228.57C578.31,-240.45 621.26,-255.73 660,-266.5 668.31,-268.81 676.97,-271.02 685.69,-273.12"/>
<polygon fill="black" stroke="black" points="685.03,-276.55 695.56,-275.43 686.62,-269.74 685.03,-276.55"/>
</g>
<!-- 139850775321872&#45;&gt;139850775325008* -->
<g id="edge23" class="edge">
<title>139850775321872&#45;&gt;139850775325008*</title>
<path fill="none" stroke="black" d="M568.85,-192.45C588.88,-184.29 609.31,-172.71 624,-156.5 658.82,-118.06 621.39,-80.12 660,-45.5 685.45,-22.68 725.04,-17.24 753.84,-16.7"/>
<polygon fill="black" stroke="black" points="753.92,-20.2 763.92,-16.7 753.92,-13.2 753.92,-20.2"/>
</g>
<!-- 139850775321872*&#45;&gt;139850775321872 -->
<g id="edge7" class="edge">
<title>139850775321872*&#45;&gt;139850775321872</title>
<path fill="none" stroke="black" d="M339.18,-210.5C346.67,-210.5 355.38,-210.5 364.79,-210.5"/>
<polygon fill="black" stroke="black" points="364.84,-214 374.84,-210.5 364.84,-207 364.84,-214"/>
</g>
<!-- 139850771735824 -->
<g id="node28" class="node">
<title>139850771735824</title>
<polygon fill="none" stroke="black" points="2087.5,-61.5 2087.5,-97.5 2332.5,-97.5 2332.5,-61.5 2087.5,-61.5"/>
<text text-anchor="middle" x="2098" y="-75.8" font-family="Times,serif" font-size="14.00"> </text>
<polyline fill="none" stroke="black" points="2108.5,-61.5 2108.5,-97.5 "/>
<text text-anchor="middle" x="2168.5" y="-75.8" font-family="Times,serif" font-size="14.00">data 328.0000</text>
<polyline fill="none" stroke="black" points="2228.5,-61.5 2228.5,-97.5 "/>
<text text-anchor="middle" x="2280.5" y="-75.8" font-family="Times,serif" font-size="14.00">grad 0.0000</text>
</g>
<!-- 139850771736080+ -->
<g id="node34" class="node">
<title>139850771736080+</title>
<ellipse fill="none" stroke="black" cx="2400" cy="-79.5" rx="27" ry="18"/>
<text text-anchor="middle" x="2400" y="-75.8" font-family="Times,serif" font-size="14.00">+</text>
</g>
<!-- 139850771735824&#45;&gt;139850771736080+ -->
<g id="edge41" class="edge">
<title>139850771735824&#45;&gt;139850771736080+</title>
<path fill="none" stroke="black" d="M2332.72,-79.5C2343.47,-79.5 2353.7,-79.5 2362.76,-79.5"/>
<polygon fill="black" stroke="black" points="2362.81,-83 2372.81,-79.5 2362.81,-76 2362.81,-83"/>
</g>
<!-- 139850771735824*&#45;&gt;139850771735824 -->
<g id="edge8" class="edge">
<title>139850771735824*&#45;&gt;139850771735824</title>
<path fill="none" stroke="black" d="M2047.14,-79.5C2055.8,-79.5 2066.11,-79.5 2077.27,-79.5"/>
<polygon fill="black" stroke="black" points="2077.27,-83 2087.27,-79.5 2077.27,-76 2077.27,-83"/>
</g>
<!-- 139850771735952 -->
<g id="node30" class="node">
<title>139850771735952</title>
<polygon fill="none" stroke="black" points="2083,-155.5 2083,-191.5 2337,-191.5 2337,-155.5 2083,-155.5"/>
<text text-anchor="middle" x="2093.5" y="-169.8" font-family="Times,serif" font-size="14.00"> </text>
<polyline fill="none" stroke="black" points="2104,-155.5 2104,-191.5 "/>
<text text-anchor="middle" x="2168.5" y="-169.8" font-family="Times,serif" font-size="14.00">data 1160.0000</text>
<polyline fill="none" stroke="black" points="2233,-155.5 2233,-191.5 "/>
<text text-anchor="middle" x="2285" y="-169.8" font-family="Times,serif" font-size="14.00">grad 0.0000</text>
</g>
<!-- 139850771735952&#45;&gt;139850771736080+ -->
<g id="edge18" class="edge">
<title>139850771735952&#45;&gt;139850771736080+</title>
<path fill="none" stroke="black" d="M2247.25,-155.38C2282.6,-137.7 2335.74,-111.13 2368.84,-94.58"/>
<polygon fill="black" stroke="black" points="2370.65,-97.59 2378.03,-89.99 2367.52,-91.33 2370.65,-97.59"/>
</g>
<!-- 139850771735952*&#45;&gt;139850771735952 -->
<g id="edge9" class="edge">
<title>139850771735952*&#45;&gt;139850771735952</title>
<path fill="none" stroke="black" d="M2047.14,-173.5C2054.63,-173.5 2063.35,-173.5 2072.78,-173.5"/>
<polygon fill="black" stroke="black" points="2072.85,-177 2082.85,-173.5 2072.85,-170 2072.85,-177"/>
</g>
<!-- 139850771654096 -->
<g id="node32" class="node">
<title>139850771654096</title>
<polygon fill="none" stroke="black" points="669,-165.5 669,-201.5 913,-201.5 913,-165.5 669,-165.5"/>
<text text-anchor="middle" x="688" y="-179.8" font-family="Times,serif" font-size="14.00">w4</text>
<polyline fill="none" stroke="black" points="707,-165.5 707,-201.5 "/>
<text text-anchor="middle" x="758" y="-179.8" font-family="Times,serif" font-size="14.00">data 2.5000</text>
<polyline fill="none" stroke="black" points="809,-165.5 809,-201.5 "/>
<text text-anchor="middle" x="861" y="-179.8" font-family="Times,serif" font-size="14.00">grad 0.0000</text>
</g>
<!-- 139850771654096&#45;&gt;139850771735248* -->
<g id="edge35" class="edge">
<title>139850771654096&#45;&gt;139850771735248*</title>
<path fill="none" stroke="black" d="M913.05,-183.5C925.5,-183.5 937.35,-183.5 947.67,-183.5"/>
<polygon fill="black" stroke="black" points="947.83,-187 957.83,-183.5 947.83,-180 947.83,-187"/>
</g>
<!-- 139850771736080 -->
<g id="node33" class="node">
<title>139850771736080</title>
<polygon fill="none" stroke="black" points="2463,-61.5 2463,-97.5 2730,-97.5 2730,-61.5 2463,-61.5"/>
<text text-anchor="middle" x="2480" y="-75.8" font-family="Times,serif" font-size="14.00">o5</text>
<polyline fill="none" stroke="black" points="2497,-61.5 2497,-97.5 "/>
<text text-anchor="middle" x="2561.5" y="-75.8" font-family="Times,serif" font-size="14.00">data 1488.0000</text>
<polyline fill="none" stroke="black" points="2626,-61.5 2626,-97.5 "/>
<text text-anchor="middle" x="2678" y="-75.8" font-family="Times,serif" font-size="14.00">grad 0.0000</text>
</g>
<!-- 139850771736080&#45;&gt;139850771736208+ -->
<g id="edge14" class="edge">
<title>139850771736080&#45;&gt;139850771736208+</title>
<path fill="none" stroke="black" d="M2730.19,-95.19C2739.5,-96.29 2748.3,-97.33 2756.2,-98.27"/>
<polygon fill="black" stroke="black" points="2756.01,-101.77 2766.35,-99.47 2756.83,-94.82 2756.01,-101.77"/>
</g>
<!-- 139850771736080+&#45;&gt;139850771736080 -->
<g id="edge10" class="edge">
<title>139850771736080+&#45;&gt;139850771736080</title>
<path fill="none" stroke="black" d="M2427.23,-79.5C2434.7,-79.5 2443.39,-79.5 2452.82,-79.5"/>
<polygon fill="black" stroke="black" points="2452.89,-83 2462.89,-79.5 2452.89,-76 2452.89,-83"/>
</g>
<!-- 139850771736208 -->
<g id="node35" class="node">
<title>139850771736208</title>
<polygon fill="none" stroke="black" points="2856,-84.5 2856,-120.5 3110,-120.5 3110,-84.5 2856,-84.5"/>
<text text-anchor="middle" x="2866.5" y="-98.8" font-family="Times,serif" font-size="14.00"> </text>
<polyline fill="none" stroke="black" points="2877,-84.5 2877,-120.5 "/>
<text text-anchor="middle" x="2941.5" y="-98.8" font-family="Times,serif" font-size="14.00">data 1488.0000</text>
<polyline fill="none" stroke="black" points="3006,-84.5 3006,-120.5 "/>
<text text-anchor="middle" x="3058" y="-98.8" font-family="Times,serif" font-size="14.00">grad 0.0000</text>
</g>
<!-- 139850771736208&#45;&gt;139850771736656 -->
<g id="edge21" class="edge">
<title>139850771736208&#45;&gt;139850771736656</title>
<path fill="none" stroke="black" d="M3110.18,-102.5C3118.5,-102.5 3126.92,-102.5 3135.31,-102.5"/>
<polygon fill="black" stroke="black" points="3135.54,-106 3145.54,-102.5 3135.54,-99 3135.54,-106"/>
</g>
<!-- 139850771736208+&#45;&gt;139850771736208 -->
<g id="edge11" class="edge">
<title>139850771736208+&#45;&gt;139850771736208</title>
<path fill="none" stroke="black" d="M2820.14,-102.5C2827.63,-102.5 2836.35,-102.5 2845.78,-102.5"/>
<polygon fill="black" stroke="black" points="2845.85,-106 2855.85,-102.5 2845.85,-99 2845.85,-106"/>
</g>
<!-- 139850775326480 -->
<g id="node37" class="node">
<title>139850775326480</title>
<polygon fill="none" stroke="black" points="1052.5,-57.5 1052.5,-93.5 1279.5,-93.5 1279.5,-57.5 1052.5,-57.5"/>
<text text-anchor="middle" x="1063" y="-71.8" font-family="Times,serif" font-size="14.00"> </text>
<polyline fill="none" stroke="black" points="1073.5,-57.5 1073.5,-93.5 "/>
<text text-anchor="middle" x="1124.5" y="-71.8" font-family="Times,serif" font-size="14.00">data 0.0000</text>
<polyline fill="none" stroke="black" points="1175.5,-57.5 1175.5,-93.5 "/>
<text text-anchor="middle" x="1227.5" y="-71.8" font-family="Times,serif" font-size="14.00">grad 0.0000</text>
</g>
<!-- 139850775326480&#45;&gt;139850775321744+ -->
<g id="edge24" class="edge">
<title>139850775326480&#45;&gt;139850775321744+</title>
<path fill="none" stroke="black" d="M1279.6,-75.5C1290.37,-75.5 1300.66,-75.5 1309.79,-75.5"/>
<polygon fill="black" stroke="black" points="1309.93,-79 1319.93,-75.5 1309.93,-72 1309.93,-79"/>
</g>
<!-- 139850775326480*&#45;&gt;139850775326480 -->
<g id="edge12" class="edge">
<title>139850775326480*&#45;&gt;139850775326480</title>
<path fill="none" stroke="black" d="M1012.03,-75.5C1020.64,-75.5 1030.87,-75.5 1041.89,-75.5"/>
<polygon fill="black" stroke="black" points="1042.21,-79 1052.21,-75.5 1042.21,-72 1042.21,-79"/>
</g>
<!-- 139850775232400 -->
<g id="node39" class="node">
<title>139850775232400</title>
<polygon fill="none" stroke="black" points="2.5,-179.5 2.5,-215.5 246.5,-215.5 246.5,-179.5 2.5,-179.5"/>
<text text-anchor="middle" x="21.5" y="-193.8" font-family="Times,serif" font-size="14.00">w2</text>
<polyline fill="none" stroke="black" points="40.5,-179.5 40.5,-215.5 "/>
<text text-anchor="middle" x="91.5" y="-193.8" font-family="Times,serif" font-size="14.00">data 5.0000</text>
<polyline fill="none" stroke="black" points="142.5,-179.5 142.5,-215.5 "/>
<text text-anchor="middle" x="194.5" y="-193.8" font-family="Times,serif" font-size="14.00">grad 0.0000</text>
</g>
<!-- 139850775232400&#45;&gt;139850775321872* -->
<g id="edge19" class="edge">
<title>139850775232400&#45;&gt;139850775321872*</title>
<path fill="none" stroke="black" d="M246.64,-205.99C256.7,-206.69 266.26,-207.36 274.79,-207.96"/>
<polygon fill="black" stroke="black" points="274.78,-211.47 285,-208.68 275.27,-204.49 274.78,-211.47"/>
</g>
</g>
</svg>
